HIERARCHY
ROOT Hips
{
	OFFSET 0.00000 0.00000 0.00000
	CHANNELS 6 Xposition Yposition Zposition Zrotation Yrotation Xrotation 
	JOINT LHipJoint
	{
		OFFSET 0 0 0
		CHANNELS 3 Zrotation Yrotation Xrotation
		JOINT LeftUpLeg
		{
			OFFSET 1.53139 -1.83434 0.76626
			CHANNELS 3 Zrotation Yrotation Xrotation
			JOINT LeftLeg
			{
				OFFSET 2.56112 -7.03663 0.00000
				CHANNELS 3 Zrotation Yrotation Xrotation
				JOINT LeftFoot
				{
					OFFSET 2.59983 -7.14299 0.00000
					CHANNELS 3 Zrotation Yrotation Xrotation
					JOINT LeftToeBase
					{
						OFFSET 0.13742 -0.37757 2.00054
						CHANNELS 3 Zrotation Yrotation Xrotation
						End Site
						{
							OFFSET 0.00000 -0.00000 1.02897
						}
					}
				}
			}
		}
	}
	JOINT RHipJoint
	{
		OFFSET 0 0 0
		CHANNELS 3 Zrotation Yrotation Xrotation
		JOINT RightUpLeg
		{
			OFFSET -1.40122 -1.83435 0.76627
			CHANNELS 3 Zrotation Yrotation Xrotation
			JOINT RightLeg
			{
				OFFSET -2.54052 -6.98003 0.00000
				CHANNELS 3 Zrotation Yrotation Xrotation
				JOINT RightFoot
				{
					OFFSET -2.63179 -7.23079 0.00000
					CHANNELS 3 Zrotation Yrotation Xrotation
					JOINT RightToeBase
					{
						OFFSET -0.24131 -0.66299 2.03908
						CHANNELS 3 Zrotation Yrotation Xrotation
						End Site
						{
							OFFSET -0.00000 -0.00000 1.07391
						}
					}
				}
			}
		}
	}
	JOINT LowerBack
	{
		OFFSET 0 0 0
		CHANNELS 3 Zrotation Yrotation Xrotation
		JOINT Spine
		{
			OFFSET 0.01174 2.10302 -0.29778
			CHANNELS 3 Zrotation Yrotation Xrotation
			JOINT Spine1
			{
				OFFSET 0.00772 2.13227 -0.01247
				CHANNELS 3 Zrotation Yrotation Xrotation
				JOINT Neck
				{
					OFFSET 0 0 0
					CHANNELS 3 Zrotation Yrotation Xrotation
					JOINT Neck1
					{
						OFFSET -0.09219 1.60848 0.31481
						CHANNELS 3 Zrotation Yrotation Xrotation
						JOINT Head
						{
							OFFSET 0.13974 1.65456 -0.31134
							CHANNELS 3 Zrotation Yrotation Xrotation
							End Site
							{
								OFFSET 0.04742 1.69515 -0.14578
							}
						}
					}
				}
				JOINT LeftShoulder
				{
					OFFSET 0 0 0
					CHANNELS 3 Zrotation Yrotation Xrotation
					JOINT LeftArm
					{
						OFFSET 3.24909 1.02882 -0.23993
						CHANNELS 3 Zrotation Yrotation Xrotation
						JOINT LeftForeArm
						{
							OFFSET 5.32955 -0.00000 -0.00000
							CHANNELS 3 Zrotation Yrotation Xrotation
							JOINT LeftHand
							{
								OFFSET 3.69232 -0.00000 -0.00000
								CHANNELS 3 Zrotation Yrotation Xrotation
								JOINT LeftFingerBase
								{
									OFFSET 0 0 0
									CHANNELS 3 Zrotation Yrotation Xrotation
									JOINT LeftHandIndex1
									{
										OFFSET 0.53660 -0.00000 -0.00000
										CHANNELS 3 Zrotation Yrotation Xrotation
										End Site
										{
											OFFSET 0.43262 -0.00000 -0.00000
										}
									}
								}
								JOINT LThumb
								{
									OFFSET 0 0 0
									CHANNELS 3 Zrotation Yrotation Xrotation
									End Site
									{
										OFFSET 0.43922 -0.00000 0.43922
									}
								}
							}
						}
					}
				}
				JOINT RightShoulder
				{
					OFFSET 0 0 0
					CHANNELS 3 Zrotation Yrotation Xrotation
					JOINT RightArm
					{
						OFFSET -3.21387 0.93002 -0.34594
						CHANNELS 3 Zrotation Yrotation Xrotation
						JOINT RightForeArm
						{
							OFFSET -5.23431 -0.00000 0.00000
							CHANNELS 3 Zrotation Yrotation Xrotation
							JOINT RightHand
							{
								OFFSET -3.55301 -0.00000 -0.00000
								CHANNELS 3 Zrotation Yrotation Xrotation
								JOINT RightFingerBase
								{
									OFFSET 0 0 0
									CHANNELS 3 Zrotation Yrotation Xrotation
									JOINT RightHandIndex1
									{
										OFFSET -0.77252 -0.00000 -0.00000
										CHANNELS 3 Zrotation Yrotation Xrotation
										End Site
										{
											OFFSET -0.62283 -0.00000 -0.00000
										}
									}
								}
								JOINT RThumb
								{
									OFFSET 0 0 0
									CHANNELS 3 Zrotation Yrotation Xrotation
									End Site
									{
										OFFSET -0.63234 -0.00000 0.63234
									}
								}
							}
						}
					}
				}
			}
		}
	}
}
MOTION
Frames: 10
Frame Time: .0083333
10.2844 17.8868 -10.5497 0 0 0 0 0 0 -21 0 0 0 0 0 0 0 0 0 0 0 0 0 0 21 0 0 0 0 0 0 0 0 0 0 0 0 0 0 0 0 0 0 0 0 0 0 -16 0 0 21 0 0 11 0 0 0 -8 0 0 0 0 0 0 0 0 0 0 0 0 0 0 0 0 0 0 0 0 8 0 0 0 0 0 0 0 0 0 0 0 0 0 0 0 0 0
10.2844 17.8868 -10.5497 -1.2754 -42.1611 2.4427 0.0000 0.0000 0.0000 -18.6062 -1.2976 -5.1217 1.6135 8.0098 22.7439 0.6759 -3.9381 -14.6962 0.0992 -2.0315 -5.5927 0.0000 0.0000 0.0000 23.9017 2.2395 -6.1053 -2.2175 -9.3051 26.7545 -0.9974 -0.5978 -19.1005 -0.0444 -1.3593 3.7381 -0.6207 0.4761 5.4675 0.3893 0.6077 -1.4190 0.6944 0.3240 -4.5458 -13.0490 -6.5107 -21.6679 10.6057 -8.0103 25.5007 4.8915 -3.4907 13.1663 0.0000 -0.0000 0.0000 -87.6504 5.3558 17.2309 15.3975 -24.6969 -3.3903 -0.0000 -0.0000 9.5465 24.9386 31.1894 13.5397 -7.1250 0.0000 -0.0000 -8.3216 63.5216 -3.7515 0.0000 -0.0000 0.0000 89.4496 -8.2799 11.3759 -16.6378 26.3778 -3.9251 0.0000 0.0000 6.4099 -12.9761 8.0443 -1.8469 7.1250 -0.0000 -0.0000 10.0442 -21.7725 5.6881
10.2768 17.8863 -10.5508 -1.1708 -42.1782 2.4431 0.0000 0.0000 0.0000 -18.6809 -1.2520 -5.1670 1.6063 7.9928 22.6922 0.6804 -3.8268 -14.7559 0.1240 -2.2698 -6.2519 0.0000 0.0000 0.0000 23.8389 2.2672 -6.2152 -2.2307 -9.3310 26.8362 -0.9963 -0.6801 -19.1216 -0.0315 -1.1457 3.1498 -0.7732 0.5171 5.4130 0.3965 0.6521 -1.4563 0.7836 0.3505 -4.5564 -13.1105 -6.5214 -21.6253 10.6107 -8.0196 25.5826 4.9056 -3.5027 13.1959 -0.0000 0.0000 0.0000 -87.7101 5.3843 17.3491 15.3941 -24.6923 -3.3889 -0.0000 -0.0000 9.3411 25.3380 31.2781 13.8118 -7.1250 0.0000 -0.0000 -7.8978 63.7197 -3.5958 -0.0000 0.0000 0.0000 89.3824 -8.4226 11.6630 -16.7069 26.4697 -3.9558 0.0000 0.0000 6.3279 -13.0675 7.8383 -1.8131 7.1250 -0.0000 -0.0000 9.9882 -21.9770 5.6082
10.2698 17.8852 -10.5525 -1.0339 -42.2152 2.4407 0.0000 0.0000 0.0000 -18.7715 -1.1278 -5.2837 1.6025 7.9838 22.6650 0.6687 -3.8199 -14.6257 0.1215 -2.2471 -6.1889 0.0000 0.0000 0.0000 23.7504 2.3071 -6.3302 -2.2386 -9.3463 26.8849 -0.9916 -0.7878 -19.1183 -0.0200 -0.9127 2.5088 -0.9334 0.5190 5.3691 0.3837 0.6429 -1.5318 0.8612 0.3508 -4.6117 -13.1422 -6.4870 -21.4859 10.6181 -7.9862 25.6305 4.9235 -3.4957 13.1838 0.0000 -0.0000 0.0000 -87.7999 5.5109 17.1413 15.4234 -24.7326 -3.4011 -0.0000 -0.0000 9.5148 24.9921 31.3252 13.6226 -7.1250 0.0000 -0.0000 -8.3471 63.6739 -3.7928 0.0000 -0.0000 0.0000 89.3841 -8.5452 12.0287 -16.7456 26.5212 -3.9731 0.0000 0.0000 6.2647 -13.2605 7.6753 -1.8028 7.1250 -0.0000 -0.0000 9.8566 -22.1347 5.4961
10.2667 17.8837 -10.5566 -0.9641 -42.1587 2.4155 0.0000 0.0000 0.0000 -18.7893 -1.1233 -5.3218 1.6000 7.9777 22.6465 0.6593 -3.9803 -14.5059 0.0934 -1.9712 -5.4261 0.0000 0.0000 0.0000 23.7299 2.2647 -6.3844 -2.2446 -9.3580 26.9218 -0.9892 -0.8907 -19.1362 -0.0124 -0.7191 1.9763 -0.9243 0.5167 5.3750 0.3014 0.6369 -1.5138 0.7715 0.3462 -4.5951 -13.0178 -6.4901 -21.4881 10.5933 -8.0301 25.6476 4.8843 -3.5060 13.1902 -0.0000 -0.0000 0.0000 -87.7689 5.4702 17.0105 15.4326 -24.7453 -3.4050 -0.0000 -0.0000 9.6754 24.9192 31.2752 13.5603 -7.1250 0.0000 -0.0000 -8.4016 63.6034 -3.8039 -0.0000 -0.0000 0.0000 89.5803 -8.4768 12.0217 -16.7588 26.5387 -3.9790 0.0000 0.0000 6.3551 -13.3576 7.7183 -1.8266 7.1250 -0.0000 -0.0000 9.7843 -22.0876 5.4652
10.2627 17.8834 -10.5598 -1.1073 -42.1112 2.5198 0.0000 0.0000 0.0000 -18.6286 -1.1391 -5.3445 1.6004 7.9789 22.6500 0.6633 -4.1040 -14.5424 0.0858 -1.8898 -5.2012 0.0000 0.0000 0.0000 23.8729 2.2638 -6.3899 -2.2465 -9.3617 26.9333 -0.9946 -0.8465 -19.1698 -0.0131 -0.7397 2.0328 -0.7683 0.5184 5.3676 0.2828 0.6495 -1.4715 0.6638 0.3475 -4.5451 -12.7615 -6.5014 -21.6544 10.3405 -8.0476 25.7640 4.7367 -3.5158 13.2482 -0.0000 0.0000 0.0000 -87.7195 5.4051 17.2842 15.4191 -24.7267 -3.3993 -0.0000 -0.0000 9.2923 25.4728 30.9519 13.7673 -7.1250 0.0000 -0.0000 -7.5244 63.4234 -3.3727 -0.0000 0.0000 0.0000 89.7195 -8.3940 11.9599 -16.7786 26.5649 -3.9878 0.0000 0.0000 6.4079 -13.3531 7.5641 -1.7897 7.1250 -0.0000 -0.0000 9.7950 -22.2438 5.4360
10.2569 17.8838 -10.5601 -1.0821 -42.1619 2.4569 0.0000 0.0000 0.0000 -18.6507 -1.1310 -5.2726 1.6053 7.9904 22.6851 0.6742 -4.0382 -14.6693 0.0965 -2.0034 -5.5151 0.0000 0.0000 0.0000 23.8396 2.2112 -6.3221 -2.2429 -9.3546 26.9110 -1.0078 -0.6461 -19.2174 -0.0234 -0.9868 2.7125 -0.7891 0.5562 5.4021 0.2802 0.6982 -1.4377 0.6682 0.3720 -4.5305 -12.7868 -6.5363 -21.7496 10.3135 -8.0755 25.8489 4.7268 -3.5317 13.3069 0.0000 0.0000 0.0000 -87.7524 5.3817 17.4562 15.3753 -24.6664 -3.3810 -0.0000 -0.0000 9.0373 25.8300 30.5711 13.8311 -7.1250 0.0000 -0.0000 -6.8574 63.1293 -3.0249 0.0000 0.0000 0.0000 89.7001 -8.4224 12.1162 -16.8349 26.6396 -4.0130 0.0000 0.0000 6.1940 -13.2893 7.8019 -1.8364 7.1250 -0.0000 -0.0000 9.8298 -22.0056 5.5100
10.2504 17.8835 -10.5605 -1.1164 -42.1903 2.4467 0.0000 0.0000 0.0000 -18.6095 -1.0604 -5.2505 1.6109 8.0036 22.7251 0.6795 -4.0337 -14.7282 0.1105 -2.1432 -5.9015 0.0000 0.0000 0.0000 23.8673 2.1808 -6.2549 -2.2378 -9.3448 26.8799 -1.0171 -0.5046 -19.2516 -0.0375 -1.2496 3.4357 -0.7935 0.5737 5.4058 0.3180 0.7230 -1.3970 0.7076 0.3847 -4.4912 -12.9439 -6.5417 -21.7335 10.4470 -8.0621 25.7728 4.8082 -3.5241 13.2855 -0.0000 -0.0000 0.0000 -87.8468 5.3570 17.3777 15.3528 -24.6353 -3.3716 -0.0000 -0.0000 9.2441 25.8237 30.4073 13.7629 -7.1250 0.0000 -0.0000 -6.7663 62.9594 -2.9576 -0.0000 -0.0000 0.0000 89.6425 -8.4104 12.1795 -16.8699 26.6860 -4.0287 0.0000 0.0000 6.2121 -13.0097 8.0944 -1.8633 7.1250 -0.0000 -0.0000 10.0176 -21.7207 5.6845
10.2424 17.8806 -10.5632 -1.2749 -42.2106 2.5210 0.0000 0.0000 0.0000 -18.4536 -1.0528 -5.2057 1.6130 8.0087 22.7405 0.6845 -4.0204 -14.7851 0.1252 -2.2809 -6.2827 0.0000 0.0000 0.0000 24.0408 2.1777 -6.2030 -2.2343 -9.3380 26.8584 -1.0135 -0.6216 -19.2615 -0.0269 -1.0579 2.9082 -0.7126 0.5922 5.4221 0.3643 0.7554 -1.3756 0.7069 0.3990 -4.4785 -13.0470 -6.5334 -21.6163 10.5293 -8.0446 25.6742 4.8603 -3.5188 13.2279 -0.0000 0.0000 0.0000 -87.8724 5.3360 17.3448 15.3356 -24.6115 -3.3645 -0.0000 -0.0000 9.4090 25.5783 30.4559 13.6374 -7.1250 0.0000 -0.0000 -7.0901 62.9441 -3.0973 -0.0000 0.0000 0.0000 89.6394 -8.4075 12.0792 -16.8664 26.6813 -4.0272 0.0000 0.0000 6.4286 -12.7634 8.3210 -1.8776 7.1250 -0.0000 -0.0000 10.1840 -21.5016 5.8334
10.2362 17.8802 -10.5675 -1.2460 -42.1787 2.5278 0.0000 0.0000 0.0000 -18.4363 -1.0422 -5.2541 1.6138 8.0105 22.7459 0.6804 -4.0998 -14.7339 0.1293 -2.3176 -6.3842 0.0000 0.0000 0.0000 24.0498 2.1172 -6.2581 -2.2325 -9.3345 26.8473 -1.0093 -0.6669 -19.2393 -0.0227 -0.9729 2.6743 -0.7640 0.6148 5.4275 0.3525 0.7813 -1.3765 0.7212 0.4132 -4.4834 -13.0701 -6.5406 -21.6787 10.5683 -8.0601 25.7684 4.8801 -3.5222 13.2852 0.0000 0.0000 0.0000 -87.8675 5.3051 17.3653 15.3645 -24.6514 -3.3765 -0.0000 -0.0000 9.4840 25.3467 30.6719 13.5847 -7.1250 0.0000 -0.0000 -7.5001 63.1036 -3.3055 0.0000 0.0000 0.0000 89.6733 -8.4457 12.1014 -16.9304 26.7659 -4.0559 0.0000 0.0000 6.4030 -12.6016 8.6920 -1.9350 7.1250 -0.0000 -0.0000 10.2827 -21.1345 5.9788
